# xmcd
#
# Track frame offsets: 
#        150
#        21570
#        44952
#        64788
#        93347
#        114770
#        144210
#        168110
#        194214
#        218833
#        245934
#
# Disc length: 3726 seconds
#
# Revision: 0
# Processed by: cddbd v1.5.2PL0 Copyright (c) Steve Scherf et al.
# Submitted via: ExactAudioCopy v1.0b4
#
DISCID=a60e8c0b
DTITLE=Bryan Lee - Sanctuary
DYEAR=2018
DGENRE=Blues
TTITLE0=Fight For The Light
TTITLE1=The Gift
TTITLE2=Jesus Gave Me The Blues
TTITLE3=U-Haul
TTITLE4=Sanctuary
TTITLE5=Mr. Big
TTITLE6=Only If You Praise The Lord
TTITLE7=Don't Take My Blindness For A Weakness
TTITLE8=I Ain't Gonna Stop
TTITLE9=The Lord's Prayer
TTITLE10=Jesus Is My Lord And Savior
EXTD=
EXTT0=
EXTT1=
EXTT2=
EXTT3=
EXTT4=
EXTT5=
EXTT6=
EXTT7=
EXTT8=
EXTT9=
EXTT10=
PLAYORDER=
